<?xml version="1.0" encoding="utf-8"?>
<!-- Generator: Adobe Illustrator 15.1.0, SVG Export Plug-In . SVG Version: 6.00 Build 0)  -->
<!DOCTYPE svg PUBLIC "-//W3C//DTD SVG 1.1//EN" "http://www.w3.org/Graphics/SVG/1.1/DTD/svg11.dtd">
<svg version="1.1" id="Layer_1" xmlns="http://www.w3.org/2000/svg" xmlns:xlink="http://www.w3.org/1999/xlink" x="0px" y="0px"
	 width="30.017px" height="30.016px" viewBox="0 0 30.017 30.016" enable-background="new 0 0 30.017 30.016" xml:space="preserve">
<path fill="none" stroke="#010101" stroke-width="0.933" stroke-linecap="round" stroke-miterlimit="10" d="M7.205,0.466h15.606
	c3.722,0,6.739,3.017,6.739,6.739v15.605c0,3.722-3.017,6.738-6.739,6.738H7.205c-3.722,0-6.739-3.017-6.739-6.738V7.206
	C0.466,3.483,3.483,0.466,7.205,0.466z"/>
<rect x="5.019" y="12.201" fill="none" stroke="#010101" stroke-width="0.933" stroke-miterlimit="10" width="4.384" height="13.151"/>
<path fill="none" stroke="#010101" stroke-width="0.933" stroke-miterlimit="10" d="M7.21,9.716c-1.462,0-2.63-1.169-2.63-2.631
	c0-1.461,1.168-2.63,2.63-2.63c1.461,0,2.63,1.169,2.63,2.63C9.84,8.547,8.671,9.716,7.21,9.716z"/>
<path fill="none" stroke="#010101" stroke-width="0.933" stroke-miterlimit="10" d="M25.478,25.352h-4.385v-7.745
	c0-1.169-1.022-2.192-2.191-2.192s-2.193,1.023-2.193,2.192v7.745h-4.383V12.201h4.383v1.754c0.731-1.169,2.338-2.046,3.654-2.046
	c2.776,0,5.115,2.338,5.115,5.114V25.352z"/>
</svg>
