<?xml version="1.0" encoding="utf-8"?>
<!-- Generator: Adobe Illustrator 15.1.0, SVG Export Plug-In . SVG Version: 6.00 Build 0)  -->
<!DOCTYPE svg PUBLIC "-//W3C//DTD SVG 1.1//EN" "http://www.w3.org/Graphics/SVG/1.1/DTD/svg11.dtd">
<svg version="1.1" id="Layer_1" xmlns="http://www.w3.org/2000/svg" xmlns:xlink="http://www.w3.org/1999/xlink" x="0px" y="0px"
	 width="30.017px" height="30.016px" viewBox="0 0 30.017 30.016" enable-background="new 0 0 30.017 30.016" xml:space="preserve">
<circle fill="none" stroke="#010101" stroke-width="0.933" stroke-linecap="round" stroke-miterlimit="10" cx="15.008" cy="15.008" r="6.718"/>
<circle fill="none" stroke="#010101" stroke-width="0.933" stroke-linecap="round" stroke-miterlimit="10" cx="23.697" cy="5.652" r="1.032"/>
<path fill="none" stroke="#010101" stroke-width="0.933" stroke-linecap="round" stroke-miterlimit="10" d="M7.204,0.466H22.81
	c3.723,0,6.74,3.017,6.74,6.739v15.605c0,3.722-3.018,6.738-6.74,6.738H7.204c-3.722,0-6.738-3.017-6.738-6.738V7.206
	C0.466,3.483,3.482,0.466,7.204,0.466z"/>
<circle fill="none" stroke="#010101" stroke-width="0.933" stroke-linecap="round" stroke-miterlimit="10" cx="-195.532" cy="2911.803" r="6.718"/>
<circle fill="none" stroke="#010101" stroke-width="0.933" stroke-linecap="round" stroke-miterlimit="10" cx="-186.843" cy="2902.448" r="1.032"/>
<path fill="none" stroke="#010101" stroke-width="0.933" stroke-linecap="round" stroke-miterlimit="10" d="M-203.336,2897.261
	h15.606c3.722,0,6.74,3.018,6.74,6.74v15.605c0,3.721-3.018,6.738-6.74,6.738h-15.606c-3.722,0-6.738-3.018-6.738-6.738v-15.605
	C-210.074,2900.279-207.058,2897.261-203.336,2897.261z"/>
</svg>
