<?xml version="1.0" encoding="utf-8"?>
<!-- Generator: Adobe Illustrator 15.1.0, SVG Export Plug-In . SVG Version: 6.00 Build 0)  -->
<!DOCTYPE svg PUBLIC "-//W3C//DTD SVG 1.1//EN" "http://www.w3.org/Graphics/SVG/1.1/DTD/svg11.dtd">
<svg version="1.1" id="Layer_1" xmlns="http://www.w3.org/2000/svg" xmlns:xlink="http://www.w3.org/1999/xlink" x="0px" y="0px"
	 width="30.017px" height="30.016px" viewBox="0 0 30.017 30.016" enable-background="new 0 0 30.017 30.016" xml:space="preserve">
<circle fill="none" stroke="#010101" stroke-width="0.933" stroke-linecap="round" stroke-miterlimit="10" cx="-142.478" cy="2916.803" r="6.718"/>
<circle fill="none" stroke="#010101" stroke-width="0.933" stroke-linecap="round" stroke-miterlimit="10" cx="-133.789" cy="2907.448" r="1.032"/>
<path fill="none" stroke="#010101" stroke-width="0.933" stroke-linecap="round" stroke-miterlimit="10" d="M-150.282,2902.261
	h15.606c3.722,0,6.74,3.018,6.74,6.74v15.605c0,3.721-3.018,6.738-6.74,6.738h-15.606c-3.722,0-6.738-3.018-6.738-6.738v-15.605
	C-157.02,2905.279-154.004,2902.261-150.282,2902.261z"/>
<g>
	<path fill="none" stroke="#010101" stroke-width="0.933" stroke-linecap="round" stroke-miterlimit="10" d="M7.206,0.466h15.606
		c3.722,0,6.739,3.017,6.739,6.739v15.605c0,3.722-3.017,6.738-6.739,6.738H7.206c-3.722,0-6.739-3.017-6.739-6.738V7.206
		C0.466,3.483,3.483,0.466,7.206,0.466z"/>
	<path fill="none" stroke="#010101" stroke-width="0.933" stroke-miterlimit="10" d="M15.123,29.542v-9.435
		c0-0.326-0.265-0.59-0.591-0.59h-2.199c-0.27,0-0.49-0.215-0.497-0.485v-2.14c0.007-0.271,0.227-0.485,0.497-0.485h2.186
		c0.328,0,0.592-0.264,0.592-0.591v-2.14c0-4.47,1.419-6.372,4.729-6.372h3.275c0.27,0,0.49,0.215,0.496,0.484v2.671
		c-0.006,0.271-0.226,0.485-0.496,0.485h-3.239c-0.327,0-0.592,0.265-0.592,0.591v4.339c0,0.327,0.265,0.592,0.592,0.592h3.274
		c0.157-0.002,0.305,0.067,0.403,0.188c0.079,0.101,0.113,0.229,0.094,0.355l-1.052,2.057c-0.19,0.343-0.438,0.509-0.544,0.509
		h-2.175c-0.327,0-0.592,0.265-0.592,0.591v9.375"/>
</g>
</svg>
